<?xml version="1.0" standalone="no"?>
<!DOCTYPE svg PUBLIC "-//W3C//DTD SVG 20010904//EN"
 "http://www.w3.org/TR/2001/REC-SVG-20010904/DTD/svg10.dtd">
<svg version="1.0" xmlns="http://www.w3.org/2000/svg"
 width="703.000000pt" height="703.000000pt" viewBox="0 0 703.000000 703.000000"
 preserveAspectRatio="xMidYMid meet">

<g transform="translate(0.000000,703.000000) scale(0.100000,-0.100000)"
fill="#000000" stroke="none">
<path d="M3111 6753 c13 -78 11 -150 -5 -156 -10 -4 -12 -23 -8 -81 l5 -76
-35 0 c-59 0 -162 80 -214 168 -10 18 -22 32 -26 32 -23 0 -10 -176 20 -264
19 -55 19 -56 -1 -56 -10 0 -44 7 -74 16 -60 17 -75 13 -50 -13 8 -10 26 -43
40 -74 l25 -57 -57 -6 c-145 -17 -163 -26 -88 -45 25 -6 62 -27 87 -49 l44
-39 7 -126 c4 -69 10 -135 14 -146 5 -16 1 -21 -22 -26 -41 -9 -173 -73 -173
-85 0 -5 15 -10 33 -10 43 0 132 -42 151 -72 14 -21 58 -138 53 -138 -1 0 -35
9 -74 20 -67 18 -133 19 -133 0 0 -4 13 -10 30 -13 39 -8 106 -51 125 -81 12
-17 18 -58 22 -138 4 -82 14 -149 39 -243 18 -71 38 -168 44 -215 15 -115 34
-196 75 -317 29 -85 35 -120 37 -200 l3 -98 -50 -5 c-84 -9 -125 -52 -125
-132 0 -38 -4 -47 -26 -58 -25 -14 -54 -57 -54 -82 -1 -7 -19 -22 -42 -33 -38
-19 -67 -56 -82 -107 -4 -14 -10 -15 -43 -6 -21 6 -89 8 -158 6 -103 -4 -132
-9 -204 -36 -79 -30 -93 -32 -216 -32 -154 0 -221 -11 -324 -52 -108 -42 -185
-92 -264 -170 l-70 -68 7 38 c30 172 50 441 33 458 -4 4 -26 10 -49 13 -44 6
-46 8 -81 92 -11 27 -27 42 -56 55 -23 10 -41 20 -41 23 0 3 41 138 90 300 65
214 86 298 79 307 -24 29 -306 233 -330 239 -16 4 -29 1 -36 -7 -6 -7 -36
-121 -68 -252 -55 -234 -58 -242 -130 -380 -122 -233 -198 -425 -239 -610 -7
-27 -10 -23 -66 71 -73 123 -124 173 -179 173 -49 0 -75 -23 -68 -59 3 -14 18
-60 32 -101 55 -158 80 -310 98 -610 4 -53 13 -83 52 -161 l48 -95 -32 -44
c-24 -34 -31 -53 -31 -90 0 -26 -7 -64 -15 -83 -8 -20 -15 -60 -15 -89 -1 -29
-4 -71 -9 -93 -10 -52 1 -91 36 -127 l27 -28 -18 -113 c-34 -204 -90 -433
-201 -812 -84 -288 -110 -405 -125 -550 -15 -144 -8 -417 14 -550 28 -168 36
-198 61 -231 24 -32 100 -74 132 -74 10 0 -5 11 -33 25 -71 34 -111 82 -119
142 -4 26 -15 102 -26 168 -10 66 -18 154 -18 195 l2 75 7 -71 c9 -82 27 -144
42 -144 6 0 8 9 4 23 -6 20 -19 91 -32 175 -3 18 -9 30 -15 27 -15 -10 -11
196 7 314 16 111 39 213 79 346 13 44 47 161 74 260 27 99 61 219 75 267 23
80 76 328 94 443 5 36 12 51 25 53 26 5 140 -51 225 -111 l74 -52 -7 -129 c-9
-180 -7 -443 5 -561 18 -189 24 -446 10 -510 -32 -155 -131 -393 -186 -448
-23 -24 -71 -40 -86 -31 -21 13 -30 105 -30 294 -1 236 -12 213 -24 -50 -9
-194 -10 -183 0 -225 6 -26 3 -33 -24 -48 -43 -26 -63 -69 -48 -102 9 -21 18
-25 44 -23 18 1 37 -1 41 -6 4 -4 8 -52 8 -107 l0 -100 24 6 c52 13 202 131
245 193 14 21 26 51 26 67 0 16 23 70 54 124 74 130 91 176 115 320 26 155 28
397 5 594 -12 100 -14 169 -9 253 l7 116 78 -4 c67 -4 87 -10 135 -39 63 -38
156 -123 175 -159 13 -25 12 -25 -16 2 -16 15 -51 48 -79 73 -58 53 -134 96
-175 97 -32 1 -90 -20 -90 -32 0 -5 -3 -16 -6 -25 -6 -14 -3 -14 30 2 32 15
41 15 74 4 57 -20 123 -68 161 -117 l33 -44 -11 -97 c-6 -54 -10 -105 -9 -113
4 -40 -8 -64 -87 -170 -96 -130 -146 -219 -168 -300 -16 -58 -28 -170 -18
-170 3 1 25 41 49 91 36 75 60 109 150 204 58 63 108 113 109 111 2 -2 -8 -33
-22 -71 -14 -37 -23 -70 -20 -73 12 -12 58 21 97 72 23 30 44 53 46 51 8 -8
-122 -242 -194 -350 -164 -246 -358 -460 -562 -623 -57 -45 -98 -82 -91 -82
25 0 170 121 305 255 205 204 374 433 507 686 l67 126 82 32 c106 41 158 75
233 151 47 48 66 60 90 60 46 -1 205 -26 213 -35 9 -9 6 -113 -9 -343 l-12
-183 39 -40 c88 -90 259 -139 486 -139 l126 0 12 -37 c24 -75 74 -155 122
-196 46 -39 48 -42 48 -93 0 -81 32 -156 88 -204 l47 -40 219 0 218 0 20 25
c22 29 95 68 176 96 96 33 282 52 510 53 248 1 236 6 247 -105 l7 -69 324 0
c310 0 324 1 324 19 0 55 74 91 187 91 70 0 125 -24 172 -74 19 -20 42 -36 50
-36 31 1 -216 206 -366 304 l-101 66 8 42 c19 99 43 371 42 476 l-1 112 28 14
c47 25 138 104 160 139 20 32 20 40 11 183 -5 82 -10 204 -10 271 l0 122 68
78 c85 97 125 156 162 236 25 56 29 76 33 206 l6 143 -77 82 c-141 147 -286
344 -359 486 -86 168 -233 398 -280 439 -90 80 -302 170 -453 192 -79 11 -208
8 -258 -7 -24 -7 -24 -7 -8 25 25 47 135 181 257 311 59 63 124 135 143 160
36 45 70 140 81 220 5 38 17 59 75 125 86 99 99 124 106 218 7 74 8 77 58 129
58 60 134 170 140 202 32 164 41 384 18 446 -6 20 -27 51 -45 70 -64 67 -66
72 -64 223 l2 138 -32 25 c-24 18 -33 34 -33 54 0 40 -34 75 -115 119 l-70 37
-5 54 c-6 66 -23 75 -36 19 -10 -48 -35 -70 -61 -53 -9 6 -31 54 -49 108 -19
54 -39 105 -46 114 -7 8 -51 40 -97 69 -104 67 -188 139 -208 176 -21 41 -26
27 -14 -39 6 -31 9 -59 7 -61 -2 -2 -31 20 -65 50 -67 60 -112 77 -206 77 -52
0 -59 3 -104 45 -55 52 -105 75 -158 75 -37 -1 -38 -1 -18 -18 33 -28 65 -78
65 -102 0 -22 -1 -22 -117 -15 l-118 7 -48 46 c-27 26 -64 73 -84 105 -20 31
-39 57 -43 57 -4 0 -3 -21 1 -47z m-70 -434 c37 -22 82 -54 101 -72 19 -18 27
-27 19 -21 -9 6 -59 36 -111 67 -52 30 -106 68 -120 83 l-25 28 35 -22 c19
-13 65 -41 101 -63z m539 -373 c25 -26 86 -79 137 -117 126 -96 193 -185 193
-259 l0 -35 -18 30 c-11 17 -26 36 -35 44 -10 8 -17 28 -17 47 0 44 -45 94
-170 189 -53 40 -114 97 -136 126 -54 70 -78 118 -33 64 19 -22 54 -62 79 -89z
m166 62 l29 -33 -32 29 c-31 28 -38 36 -30 36 2 0 16 -15 33 -32z m491 -136
c99 -120 134 -202 134 -314 1 -93 -7 -110 -31 -70 -10 16 -34 39 -53 51 -70
43 -81 92 -36 169 10 18 19 41 19 50 0 30 -40 95 -94 152 -29 30 -59 64 -67
75 -26 35 88 -66 128 -113z m-667 -207 c44 -36 91 -70 104 -76 13 -6 27 -21
30 -33 9 -32 7 -66 -3 -66 -17 0 -206 207 -229 251 -22 40 -22 42 -2 17 11
-15 57 -56 100 -93z m525 71 c8 -19 19 -75 25 -125 6 -50 19 -113 30 -141 11
-27 18 -50 16 -50 -2 0 -18 22 -36 50 -29 45 -32 59 -39 163 -5 63 -11 120
-15 126 -4 6 -4 11 -1 11 3 0 12 -15 20 -34z m-275 -207 c42 -79 38 -97 -6
-24 -20 33 -59 87 -88 120 -82 96 -85 105 -8 31 40 -39 84 -95 102 -127z m709
4 c1 -24 -3 -43 -9 -43 -6 0 -10 33 -9 83 1 70 2 76 10 42 4 -22 8 -59 8 -82z
m-1148 -16 l23 -6 -29 -31 c-16 -16 -31 -30 -34 -30 -5 0 -54 81 -69 111 -2 4
17 -3 41 -16 25 -12 55 -25 68 -28z m715 -237 c8 0 14 -7 14 -15 0 -8 -4 -15
-9 -15 -12 0 -51 49 -51 64 0 6 7 0 16 -12 8 -12 22 -22 30 -22z m-210 -164
c22 -7 131 -62 244 -122 l205 -109 159 -3 159 -4 -7 -126 c-3 -70 -9 -142 -13
-160 -5 -32 -7 -34 -42 -30 -71 9 -175 -27 -274 -94 -67 -45 -102 -94 -123
-169 -19 -69 -29 -281 -16 -336 9 -39 8 -41 -14 -46 -12 -2 -56 7 -96 19 -81
26 -162 32 -156 12 3 -7 14 -14 26 -16 12 -2 22 -8 22 -13 0 -5 15 -9 34 -9
40 0 58 -19 27 -27 -12 -3 -21 -10 -21 -15 0 -11 129 -5 170 8 21 6 16 -2 -28
-50 -69 -76 -130 -156 -175 -232 -61 -101 -80 -110 -220 -95 -100 10 -103 12
-197 126 -63 77 -285 395 -313 449 -26 51 -37 134 -37 294 0 111 -3 143 -12
140 -7 -3 -15 -18 -18 -34 -7 -42 -39 -43 -85 -3 -42 37 -151 252 -181 357
-15 54 -16 71 -6 108 16 59 47 100 98 130 75 44 111 29 159 -65 34 -68 32 -81
-7 -43 -37 35 -95 62 -133 62 -35 0 -72 -39 -81 -84 -9 -48 -2 -53 30 -21 30
30 72 31 90 3 8 -14 0 -28 -47 -77 -31 -33 -57 -62 -57 -65 0 -8 154 -199 172
-214 26 -21 29 1 13 78 -22 105 -20 130 20 196 19 32 35 63 35 68 1 21 20 -22
45 -102 14 -45 29 -84 34 -87 5 -2 17 8 26 23 44 68 91 123 137 157 36 28 46
40 36 47 -10 6 2 22 43 61 96 88 123 100 224 98 76 -2 87 0 82 13 -8 20 17 21
69 2z m-2853 -238 c68 -46 287 -210 287 -215 0 -2 -19 -66 -41 -141 -23 -75
-72 -236 -108 -357 -56 -186 -95 -285 -106 -273 -2 2 4 35 12 73 19 94 52 332
59 425 6 84 -11 153 -40 158 -34 7 -65 -8 -85 -41 -29 -47 -100 -268 -155
-482 -73 -280 -81 -301 -118 -309 -18 -3 -35 -3 -40 2 -4 4 55 270 132 590 77
321 140 585 140 587 0 12 35 3 63 -17z m67 -353 c19 -22 24 -139 11 -220 -7
-39 -19 -115 -27 -169 -8 -55 -16 -102 -19 -104 -11 -12 -60 17 -65 39 -6 22
-10 24 -57 21 l-51 -3 10 43 c5 24 32 112 59 195 61 186 101 243 139 198z
m3384 -112 c14 -51 -1 -60 -112 -66 -53 -3 -107 -8 -119 -12 -39 -12 -26 12
24 46 60 41 130 69 168 66 24 -2 31 -8 39 -34z m-24 -101 c0 -57 -59 -212 -80
-212 -6 0 -10 22 -10 49 0 28 -4 52 -9 56 -13 8 -90 -107 -98 -145 -4 -22 0
-36 13 -51 17 -19 17 -21 -27 -65 -34 -34 -45 -40 -46 -27 -1 10 -6 46 -12 80
-6 39 -6 95 -1 155 5 51 10 98 10 105 0 6 10 15 23 19 12 4 33 15 46 25 29 23
66 26 57 4 -7 -19 -1 -19 59 5 63 24 75 24 75 2z m-3719 -302 c-39 -161 -68
-296 -65 -301 3 -5 23 -9 45 -9 l39 0 -14 -35 c-8 -19 -11 -35 -6 -35 15 0 50
89 87 225 20 72 38 132 40 135 3 3 12 -5 20 -17 19 -28 26 -29 63 -1 25 18 33
20 55 10 29 -14 30 -18 10 -162 -8 -58 -15 -122 -15 -144 0 -26 -8 -48 -25
-68 -14 -16 -25 -33 -25 -36 1 -12 40 -55 46 -50 3 3 12 61 20 129 16 124 50
226 91 271 21 23 76 23 99 1 14 -15 16 -32 9 -142 -4 -69 -11 -150 -16 -180
-8 -51 -6 -71 6 -59 3 3 11 56 18 117 l12 113 45 -7 c25 -4 56 -13 69 -22 23
-15 24 -18 17 -102 -9 -113 -59 -363 -90 -443 -53 -140 -153 -293 -260 -398
l-67 -65 -117 1 c-72 0 -147 7 -196 18 -104 24 -140 60 -219 216 -50 101 -57
122 -57 175 -1 102 -28 346 -49 435 -11 47 -34 127 -50 178 -17 52 -31 100
-31 108 0 24 47 36 83 20 40 -17 87 -67 70 -73 -23 -8 -14 -50 39 -180 54
-135 63 -188 45 -280 -5 -26 -5 -43 0 -43 5 0 22 69 37 153 37 197 78 362 117
462 40 106 182 400 187 387 2 -6 -29 -142 -67 -302z m2367 293 c5 -10 12 -61
15 -113 4 -82 17 -142 54 -249 3 -9 -31 20 -76 64 l-82 80 7 55 c3 30 15 69
25 86 11 17 19 42 19 56 0 40 22 52 38 21z m21 -396 c25 -77 61 -154 93 -200
11 -16 18 -30 16 -32 -11 -11 -172 112 -220 168 -116 134 -118 141 -55 197
l42 39 51 -50 c41 -40 55 -63 73 -122z m-168 -80 c83 -90 175 -168 278 -238
l65 -43 -33 -14 c-31 -12 -33 -16 -28 -48 3 -18 3 -34 -1 -34 -10 0 -190 135
-231 173 -18 18 -62 65 -97 106 -52 60 -64 81 -64 108 0 33 15 73 27 73 3 0
41 -37 84 -83z m8 -247 c109 -108 217 -200 269 -229 13 -7 10 -15 -19 -45
l-34 -36 -50 34 c-27 18 -125 100 -217 180 l-168 147 0 54 c0 30 5 66 10 81
l11 27 36 -44 c20 -24 93 -100 162 -169z m-388 111 c127 -43 138 -52 385 -316
92 -99 319 -333 504 -520 340 -343 478 -496 559 -617 25 -37 49 -64 54 -61 37
23 -47 427 -170 816 l-47 147 32 33 c49 51 98 154 106 225 6 53 10 63 30 68
49 12 85 -10 222 -141 75 -71 140 -131 145 -133 10 -4 6 6 -40 100 -18 37 -31
77 -29 90 3 22 6 23 103 22 107 0 187 -15 248 -46 46 -23 81 -72 241 -333 155
-256 292 -441 432 -585 l54 -55 -5 -140 -4 -140 -41 -81 c-42 -83 -185 -268
-200 -259 -18 11 -102 223 -135 342 -49 173 -44 160 -55 143 -6 -8 -10 -62
-10 -120 -1 -58 -4 -123 -8 -145 l-7 -40 -32 56 c-35 63 -72 148 -98 229 -16
49 -17 81 -11 336 5 202 4 295 -5 328 -6 25 -14 46 -18 46 -11 0 -29 -86 -41
-195 -20 -177 -47 -231 -74 -148 -30 92 -47 187 -45 247 2 36 -1 59 -7 56 -5
-3 -9 -100 -9 -227 0 -259 5 -253 -100 -120 -33 41 -63 76 -66 76 -4 1 -8 -34
-11 -77 -4 -67 -11 -93 -53 -182 -41 -88 -49 -113 -49 -164 0 -72 27 -132 76
-169 49 -36 64 -40 168 -46 l95 -6 1 -108 c1 -59 4 -110 7 -113 2 -3 32 4 66
16 33 11 72 20 86 20 14 0 25 3 25 6 0 3 -15 24 -34 47 -34 43 -76 118 -76
137 0 16 38 12 67 -7 14 -10 43 -44 64 -76 40 -61 51 -88 124 -292 41 -113 79
-205 139 -337 14 -32 25 -58 23 -58 -1 -1 -38 -3 -82 -6 -183 -11 -370 -52
-696 -154 -221 -69 -192 -58 -531 -184 -331 -123 -645 -210 -920 -257 -88 -14
-188 -22 -348 -26 -203 -5 -234 -3 -319 16 -114 25 -184 56 -233 103 -36 33
-38 39 -38 96 0 54 3 63 26 81 15 12 32 21 38 21 6 0 38 13 71 29 145 69 266
211 463 546 159 272 172 312 172 532 -1 162 -20 436 -32 448 -12 12 -39 -10
-67 -54 -27 -45 -91 -182 -91 -196 0 -3 -25 -70 -56 -148 -63 -158 -118 -274
-140 -297 -12 -12 -14 -12 -14 7 0 23 -46 482 -56 551 -8 64 -24 50 -24 -21 0
-102 -48 -227 -143 -376 l-34 -53 -6 268 c-8 399 -49 580 -152 674 l-28 25 6
-25 c37 -165 29 -254 -21 -248 -24 3 -30 12 -57 93 -61 178 -114 245 -259 326
-93 53 -270 171 -281 189 -11 19 19 92 55 133 44 49 132 95 280 147 58 20 107
41 109 46 3 5 -19 13 -49 18 -51 8 -53 9 -35 23 79 59 201 93 335 93 113 0
314 -41 398 -80 36 -17 67 -28 69 -26 3 3 -11 21 -31 41 -20 19 -36 42 -36 50
0 25 78 82 115 84 6 0 35 -8 66 -18z m-2106 -868 l18 -26 -32 22 c-34 25 -38
31 -17 31 7 0 22 -12 31 -27z m1 -34 c105 -72 249 -114 368 -107 42 3 76 1 76
-3 0 -4 -11 -17 -25 -28 -59 -46 -270 -32 -377 26 -56 30 -98 81 -98 119 0 30
2 30 56 -7z m59 -194 c84 -37 154 -50 273 -50 100 1 112 -1 112 -17 0 -33 -39
-42 -167 -41 -135 2 -206 17 -276 59 -53 32 -101 96 -92 124 6 18 10 16 53
-17 26 -20 70 -46 97 -58z m-106 -110 c99 -63 167 -80 324 -80 l138 0 -3 -25
c-7 -57 -124 -75 -292 -45 -93 16 -197 64 -225 103 -18 25 -20 82 -2 82 3 0
30 -16 60 -35z m1245 -169 l44 -91 -8 -79 c-12 -109 -34 -166 -65 -166 -19 0
-25 6 -29 33 -3 17 -15 93 -26 167 -18 118 -49 274 -66 327 -3 10 19 -8 50
-41 36 -38 71 -90 100 -150z m-380 -154 c65 -24 163 -84 216 -134 l34 -33 -32
-3 c-26 -3 -57 10 -133 54 -138 78 -158 84 -304 85 l-125 0 0 31 0 31 143 -5
c111 -4 155 -10 201 -26z m-111 -102 c49 -11 110 -31 137 -46 56 -31 195 -168
185 -184 -14 -22 -54 -7 -145 56 -169 117 -256 149 -377 137 -51 -5 -53 -5
-53 20 0 19 6 27 23 30 54 10 149 5 230 -13z m-123 -101 c138 -22 381 -209
356 -274 -8 -21 -55 -4 -141 50 -136 85 -288 142 -341 129 -23 -6 -24 -3 -24
39 0 68 23 77 150 56z m-163 -681 c-3 -7 -5 -2 -5 12 0 14 2 19 5 13 2 -7 2
-19 0 -25z m10 -110 c-2 -13 -4 -3 -4 22 0 25 2 35 4 23 2 -13 2 -33 0 -45z
m4004 -319 c20 -20 21 -28 14 -133 -7 -119 -37 -230 -96 -353 -54 -114 -75
-118 -141 -30 -57 77 -68 115 -68 245 0 124 11 153 81 216 86 77 167 98 210
55z m-611 -55 c0 -36 -33 -64 -99 -84 -64 -19 -232 -52 -238 -46 -5 4 76 59
140 95 117 66 197 81 197 35z m-125 -268 c64 -27 86 -110 38 -144 -94 -64
-435 -129 -713 -134 l-145 -3 -3 28 c-2 16 3 39 11 51 48 72 301 176 502 205
101 14 271 13 310 -3z"/>
<path d="M4290 5650 c0 -33 39 -129 53 -130 12 0 8 27 -14 87 -27 73 -39 87
-39 43z"/>
<path d="M3651 4771 c54 -21 156 -78 164 -92 4 -5 -5 -5 -20 1 -29 11 -176 13
-212 4 -41 -11 -24 -21 47 -27 38 -3 97 -13 130 -23 59 -16 61 -18 107 -93 78
-127 110 -152 146 -113 42 46 -2 127 -119 222 -81 65 -224 140 -265 140 -17
-1 -11 -6 22 -19z"/>
<path d="M4576 4628 c-3 -13 -2 -26 3 -31 5 -5 11 3 13 18 6 32 -8 43 -16 13z"/>
<path d="M3560 4534 c41 -41 88 -82 104 -91 27 -14 31 -14 43 3 7 10 13 21 13
26 0 11 48 10 71 -2 10 -6 28 -29 39 -50 19 -36 24 -40 60 -40 30 0 38 3 34
14 -7 18 -55 55 -109 84 -48 26 -304 132 -319 132 -6 0 23 -34 64 -76z"/>
<path d="M3526 4379 c-22 -32 -33 -39 -50 -35 -11 4 -40 9 -64 13 -39 5 -42 4
-36 -13 4 -10 18 -31 32 -47 l26 -27 -32 -33 c-18 -18 -30 -36 -27 -39 3 -3
26 0 52 5 46 11 46 11 78 -26 18 -20 34 -37 37 -37 3 0 8 22 12 49 6 48 7 49
51 60 57 14 58 35 3 54 l-43 14 3 51 c2 29 0 52 -5 52 -4 0 -21 -19 -37 -41z"/>
<path d="M3490 3961 c0 -35 186 -145 264 -156 33 -5 46 -12 50 -27 4 -19 10
-20 63 -15 72 8 123 22 148 42 18 13 7 14 -105 15 -71 0 -148 6 -177 13 -64
17 -194 93 -200 118 -5 19 -43 27 -43 10z"/>
<path d="M3945 3733 c-52 -19 -192 -22 -223 -4 -36 19 -38 6 -7 -39 50 -72 94
-80 176 -31 108 63 139 105 54 74z"/>
<path d="M1000 4764 c-12 -36 -19 -68 -16 -72 4 -3 9 4 13 16 7 27 23 29 23 2
0 -11 5 -20 10 -20 6 0 10 30 10 70 0 39 -4 70 -9 70 -5 0 -19 -30 -31 -66z"/>
<path d="M968 4645 c-20 -27 -23 -45 -8 -45 6 0 10 -7 10 -15 0 -22 12 -18 34
11 15 21 16 30 7 50 -13 30 -21 30 -43 -1z"/>
<path d="M2680 2906 c0 -2 18 -41 40 -88 66 -141 96 -276 118 -537 4 -47 12
-86 18 -88 32 -10 55 241 34 364 -6 39 -24 97 -39 130 -42 87 -171 253 -171
219z"/>
<path d="M3137 2446 c-46 -17 -64 -32 -83 -67 -18 -35 -18 -142 1 -193 12 -36
12 -41 -3 -52 -9 -8 -20 -14 -24 -14 -20 -1 -74 -61 -94 -105 -74 -158 48
-289 237 -255 35 6 75 14 87 17 l24 6 -7 -104 c-3 -57 -8 -118 -11 -136 -4
-28 -1 -33 19 -38 22 -6 138 34 160 54 4 4 -6 36 -22 72 -17 35 -33 83 -37
106 l-6 41 58 7 c100 11 115 16 157 54 47 42 67 84 67 140 0 51 -13 84 -51
133 -37 46 -95 78 -141 78 l-33 0 -1 53 c-2 57 -16 89 -68 145 -62 68 -144 88
-229 58z"/>
</g>
</svg>
